<svg xmlns="http://www.w3.org/2000/svg" viewBox="0 0 179.5 46.3"><defs><style>.a{fill:#12191a;}.b{fill:#3aa4dc;}.c{fill:#121a1a;}.d{fill:#131a1b;}.e{fill:#121a1b;}.f{fill:#f04f2a;}.g{fill:#e8be21;}.h{fill:#1c9a64;}.i{fill:#151c1d;}</style></defs><title>tb5</title><path class="a" d="M45.1,41.7l3.6,3.6c-5.2,4.2-14.7,4.5-20.9-2A15.9,15.9,0,0,1,50,20.5c6.1,5.5,7.2,15.3,2.5,21q-1.8-1.7-3.6-3.6A10.8,10.8,0,1,0,31,39.1C34.3,43.4,39.8,44.4,45.1,41.7Z" transform="translate(-10.1 -6.4)"/><path class="b" d="M58.1,39.8a7.8,7.8,0,0,1,7.8-7.9,7.9,7.9,0,1,1,0,15.8A7.8,7.8,0,0,1,58.1,39.8Z" transform="translate(-10.1 -6.4)"/><path class="a" d="M141.6,39.8c-.1,4.9-3.1,7.7-8.2,7.6s-7.4-3.1-7.3-7.7,3.1-7.4,8.1-7.4S141.7,35.3,141.6,39.8Zm-11,.1V41c.3,1.6,1,2.7,2.7,3a2.9,2.9,0,0,0,3.3-1.5,7.2,7.2,0,0,0,.1-5.2,2.4,2.4,0,0,0-1.7-1.4C132.4,35.1,130.6,36.8,130.6,39.9Z" transform="translate(-10.1 -6.4)"/><path class="c" d="M98.4,32.7h4.3v8.7c.1,1.5.7,2.5,2.3,2.6a2.4,2.4,0,0,0,2.7-2.4c.1-2,.1-4.1.1-6.2V32.7h4.3V47h-4.3V45c-.4-.1-.4.3-.6.5a5.1,5.1,0,0,1-5.8,1.6,4.3,4.3,0,0,1-3-4.3C98.3,39.5,98.4,36.1,98.4,32.7Z" transform="translate(-10.1 -6.4)"/><path class="c" d="M82.2,30.6V27H98v3.5H92.4V47H87.9V30.6Z" transform="translate(-10.1 -6.4)"/><path class="d" d="M28.5,11.4v-5H38.8v5H28.4v5.1H16.7c-1.1,0-1.6.4-1.6,1.6s0,3.9,0,5.9H10.2a64.2,64.2,0,0,1,0-7.6c.3-2.9,3-4.9,6.1-4.9H28.5Zm.2-4.8v4.6h9.7a23.4,23.4,0,0,1-.1-4.6Z" transform="translate(-10.1 -6.4)"/><path class="a" d="M28.4,47.6v5c-4.4,0-8.7.2-13,0s-5.3-2.9-5.3-6.2V40.1h5c0,2,.1,4,0,5.9s.4,1.6,1.5,1.6C20.5,47.5,24.5,47.6,28.4,47.6Z" transform="translate(-10.1 -6.4)"/><path class="e" d="M156.7,47V26.8c2.5.1,5-.3,7.4.2a4,4,0,0,1,3.3,3.4,5.2,5.2,0,0,1-2.4,5.8c3.6,1.2,4.6,5.4,2.4,8.5a5.2,5.2,0,0,1-4.2,2.3C161.1,47.1,158.9,47,156.7,47Zm2-9.6v7.8h4.5a3.5,3.5,0,0,0,3.3-3c.3-2.3-.4-3.6-2.3-4.3S160.6,37.4,158.7,37.4Zm0-1.7c2.4-.1,4.9.5,6.4-2.1a3.2,3.2,0,0,0-.2-3.9c-1.7-1.9-4-1-6.2-1.2Z" transform="translate(-10.1 -6.4)"/><path class="a" d="M124.6,46.8c-4.4,1.9-7.6-.2-7.6-4.8V35.9h-2.4V32.7h2.3V29.6l4.4-1.3v4.3h3.2v3.3h-3c0,2.3-.2,4.6,0,6.8s1.1,1.5,3.1,1v3.1Z" transform="translate(-10.1 -6.4)"/><path class="c" d="M149,47h-4.3V32.7H149v2.8a5,5,0,0,1,2-2.6,3.6,3.6,0,0,1,2.9-.3v3.9c-3.9-.5-4.9.4-4.9,4.5Z" transform="translate(-10.1 -6.4)"/><path class="c" d="M189.5,47h-1.7V39.8a24.4,24.4,0,0,0-.1-2.7c-.2-1.5-.8-2.9-2.4-3.3a4.1,4.1,0,0,0-4.2,1.6,4.4,4.4,0,0,0-1.1,2.9V47h-1.8V32.5H180v1.8a5.6,5.6,0,0,1,4.4-2.2c3,0,5,1.8,5.1,4.7S189.5,43.6,189.5,47Z" transform="translate(-10.1 -6.4)"/><path class="f" d="M63.9,23.1A4,4,0,0,1,60.1,27a3.9,3.9,0,0,1-3.8-3.9,3.8,3.8,0,0,1,3.8-3.9A4,4,0,0,1,63.9,23.1Z" transform="translate(-10.1 -6.4)"/><path class="a" d="M172.2,32.5H174V47h-1.8Z" transform="translate(-10.1 -6.4)"/><path class="g" d="M55.5,46A2.5,2.5,0,0,1,53,48.5,2.5,2.5,0,1,1,55.5,46Z" transform="translate(-10.1 -6.4)"/><path class="h" d="M70.7,27.1a2.5,2.5,0,0,1-2.5,2.4A2.6,2.6,0,0,1,65.7,27a2.6,2.6,0,0,1,2.6-2.5A2.5,2.5,0,0,1,70.7,27.1Z" transform="translate(-10.1 -6.4)"/><path class="i" d="M171.8,28a1.3,1.3,0,0,1,1.4-1.2c.8.1,1.2.4,1.2,1.3s-.5,1.2-1.3,1.2A1.2,1.2,0,0,1,171.8,28Z" transform="translate(-10.1 -6.4)"/><path class="a" d="M28.7,6.6h9.6a23.4,23.4,0,0,0,.1,4.6H28.7Z" transform="translate(-10.1 -6.4)"/></svg>